<?xml version="1.0" encoding="UTF-8" standalone="no"?>
<!DOCTYPE svg PUBLIC "-//W3C//DTD SVG 1.1//EN"
 "http://www.w3.org/Graphics/SVG/1.1/DTD/svg11.dtd">
<!-- Generated by graphviz version 10.0.1 (20240210.2158)
 -->
<!-- Pages: 1 -->
<svg width="2233pt" height="956pt"
 viewBox="0.00 0.00 2233.09 955.92" xmlns="http://www.w3.org/2000/svg" xmlns:xlink="http://www.w3.org/1999/xlink">
<g id="graph0" class="graph" transform="scale(1 1) rotate(0) translate(4 951.92)">
<polygon fill="white" stroke="none" points="-4,4 -4,-951.92 2229.09,-951.92 2229.09,4 -4,4"/>
<!-- 1 -->
<g id="node1" class="node">
<title>1</title>
<ellipse fill="none" stroke="black" cx="76.54" cy="-63.99" rx="71.77" ry="63.99"/>
<text text-anchor="start" x="37.17" y="-91.94" font-family="Times,serif" font-size="14.00">val=31943484</text>
<text text-anchor="start" x="33.79" y="-75.44" font-family="Times,serif" font-size="14.00">sum=31943484</text>
<text text-anchor="start" x="54.04" y="-58.94" font-family="Times,serif" font-size="14.00">count=1</text>
<text text-anchor="start" x="58.54" y="-42.44" font-family="Times,serif" font-size="14.00">size=1</text>
<text text-anchor="start" x="52.17" y="-25.94" font-family="Times,serif" font-size="14.00">height=1</text>
</g>
<!-- 2 -->
<g id="node2" class="node">
<title>2</title>
<ellipse fill="none" stroke="black" cx="76.54" cy="-227.98" rx="76.54" ry="63.99"/>
<text text-anchor="start" x="33.79" y="-255.93" font-family="Times,serif" font-size="14.00">val=182475492</text>
<text text-anchor="start" x="30.42" y="-239.43" font-family="Times,serif" font-size="14.00">sum=214418976</text>
<text text-anchor="start" x="54.04" y="-222.93" font-family="Times,serif" font-size="14.00">count=1</text>
<text text-anchor="start" x="58.54" y="-206.43" font-family="Times,serif" font-size="14.00">size=2</text>
<text text-anchor="start" x="52.17" y="-189.93" font-family="Times,serif" font-size="14.00">height=2</text>
</g>
<!-- 2&#45;&gt;1 -->
<g id="edge1" class="edge">
<title>2&#45;&gt;1</title>
<path fill="none" stroke="black" d="M76.54,-163.89C76.54,-155.98 76.54,-147.83 76.54,-139.76"/>
<polygon fill="black" stroke="black" points="80.04,-139.96 76.54,-129.96 73.04,-139.96 80.04,-139.96"/>
</g>
<!-- 3 -->
<g id="node3" class="node">
<title>3</title>
<ellipse fill="none" stroke="black" cx="247.54" cy="-391.97" rx="76.54" ry="63.99"/>
<text text-anchor="start" x="204.79" y="-419.92" font-family="Times,serif" font-size="14.00">val=205055752</text>
<text text-anchor="start" x="201.42" y="-403.42" font-family="Times,serif" font-size="14.00">sum=682164768</text>
<text text-anchor="start" x="225.04" y="-386.92" font-family="Times,serif" font-size="14.00">count=1</text>
<text text-anchor="start" x="229.54" y="-370.42" font-family="Times,serif" font-size="14.00">size=4</text>
<text text-anchor="start" x="223.17" y="-353.92" font-family="Times,serif" font-size="14.00">height=3</text>
</g>
<!-- 3&#45;&gt;2 -->
<g id="edge2" class="edge">
<title>3&#45;&gt;2</title>
<path fill="none" stroke="black" d="M197.16,-343.24C177.68,-324.79 155.25,-303.54 135.06,-284.42"/>
<polygon fill="black" stroke="black" points="137.63,-282.02 127.96,-277.68 132.81,-287.1 137.63,-282.02"/>
</g>
<!-- 4 -->
<g id="node4" class="node">
<title>4</title>
<ellipse fill="none" stroke="black" cx="247.54" cy="-227.98" rx="76.54" ry="63.99"/>
<text text-anchor="start" x="204.79" y="-255.93" font-family="Times,serif" font-size="14.00">val=262690040</text>
<text text-anchor="start" x="201.42" y="-239.43" font-family="Times,serif" font-size="14.00">sum=262690040</text>
<text text-anchor="start" x="225.04" y="-222.93" font-family="Times,serif" font-size="14.00">count=1</text>
<text text-anchor="start" x="229.54" y="-206.43" font-family="Times,serif" font-size="14.00">size=1</text>
<text text-anchor="start" x="223.17" y="-189.93" font-family="Times,serif" font-size="14.00">height=1</text>
</g>
<!-- 3&#45;&gt;4 -->
<g id="edge3" class="edge">
<title>3&#45;&gt;4</title>
<path fill="none" stroke="black" d="M247.54,-327.87C247.54,-319.96 247.54,-311.81 247.54,-303.75"/>
<polygon fill="black" stroke="black" points="251.04,-303.95 247.54,-293.95 244.04,-303.95 251.04,-303.95"/>
</g>
<!-- 5 -->
<g id="node5" class="node">
<title>5</title>
<ellipse fill="none" stroke="black" cx="506.54" cy="-555.95" rx="81.32" ry="63.99"/>
<text text-anchor="start" x="463.79" y="-583.9" font-family="Times,serif" font-size="14.00">val=278921893</text>
<text text-anchor="start" x="457.04" y="-567.4" font-family="Times,serif" font-size="14.00">sum=2406702044</text>
<text text-anchor="start" x="484.04" y="-550.9" font-family="Times,serif" font-size="14.00">count=1</text>
<text text-anchor="start" x="488.54" y="-534.4" font-family="Times,serif" font-size="14.00">size=9</text>
<text text-anchor="start" x="482.17" y="-517.9" font-family="Times,serif" font-size="14.00">height=4</text>
</g>
<!-- 5&#45;&gt;3 -->
<g id="edge7" class="edge">
<title>5&#45;&gt;3</title>
<path fill="none" stroke="black" d="M443.19,-515.33C405.36,-491.67 357.24,-461.57 318.19,-437.15"/>
<polygon fill="black" stroke="black" points="320.08,-434.21 309.75,-431.87 316.37,-440.14 320.08,-434.21"/>
</g>
<!-- 7 -->
<g id="node7" class="node">
<title>7</title>
<ellipse fill="none" stroke="black" cx="506.54" cy="-391.97" rx="81.32" ry="63.99"/>
<text text-anchor="start" x="463.79" y="-419.92" font-family="Times,serif" font-size="14.00">val=331987298</text>
<text text-anchor="start" x="457.04" y="-403.42" font-family="Times,serif" font-size="14.00">sum=1445615383</text>
<text text-anchor="start" x="484.04" y="-386.92" font-family="Times,serif" font-size="14.00">count=1</text>
<text text-anchor="start" x="488.54" y="-370.42" font-family="Times,serif" font-size="14.00">size=4</text>
<text text-anchor="start" x="482.17" y="-353.92" font-family="Times,serif" font-size="14.00">height=3</text>
</g>
<!-- 5&#45;&gt;7 -->
<g id="edge8" class="edge">
<title>5&#45;&gt;7</title>
<path fill="none" stroke="black" d="M506.54,-491.86C506.54,-483.95 506.54,-475.8 506.54,-467.73"/>
<polygon fill="black" stroke="black" points="510.04,-467.93 506.54,-457.93 503.04,-467.93 510.04,-467.93"/>
</g>
<!-- 6 -->
<g id="node6" class="node">
<title>6</title>
<ellipse fill="none" stroke="black" cx="418.54" cy="-227.98" rx="76.54" ry="63.99"/>
<text text-anchor="start" x="375.79" y="-255.93" font-family="Times,serif" font-size="14.00">val=309561915</text>
<text text-anchor="start" x="372.42" y="-239.43" font-family="Times,serif" font-size="14.00">sum=309561915</text>
<text text-anchor="start" x="396.04" y="-222.93" font-family="Times,serif" font-size="14.00">count=1</text>
<text text-anchor="start" x="400.54" y="-206.43" font-family="Times,serif" font-size="14.00">size=1</text>
<text text-anchor="start" x="394.17" y="-189.93" font-family="Times,serif" font-size="14.00">height=1</text>
</g>
<!-- 7&#45;&gt;6 -->
<g id="edge5" class="edge">
<title>7&#45;&gt;6</title>
<path fill="none" stroke="black" d="M475.02,-332.94C468.63,-321.17 461.85,-308.69 455.29,-296.62"/>
<polygon fill="black" stroke="black" points="458.42,-295.04 450.57,-287.93 452.27,-298.39 458.42,-295.04"/>
</g>
<!-- 9 -->
<g id="node9" class="node">
<title>9</title>
<ellipse fill="none" stroke="black" cx="589.54" cy="-227.98" rx="76.54" ry="63.99"/>
<text text-anchor="start" x="546.79" y="-255.93" font-family="Times,serif" font-size="14.00">val=422832103</text>
<text text-anchor="start" x="543.42" y="-239.43" font-family="Times,serif" font-size="14.00">sum=804066170</text>
<text text-anchor="start" x="567.04" y="-222.93" font-family="Times,serif" font-size="14.00">count=1</text>
<text text-anchor="start" x="571.54" y="-206.43" font-family="Times,serif" font-size="14.00">size=2</text>
<text text-anchor="start" x="565.17" y="-189.93" font-family="Times,serif" font-size="14.00">height=2</text>
</g>
<!-- 7&#45;&gt;9 -->
<g id="edge6" class="edge">
<title>7&#45;&gt;9</title>
<path fill="none" stroke="black" d="M536.51,-332.49C542.33,-321.13 548.47,-309.13 554.44,-297.49"/>
<polygon fill="black" stroke="black" points="557.49,-299.22 558.93,-288.72 551.26,-296.03 557.49,-299.22"/>
</g>
<!-- 8 -->
<g id="node8" class="node">
<title>8</title>
<ellipse fill="none" stroke="black" cx="589.54" cy="-63.99" rx="76.54" ry="63.99"/>
<text text-anchor="start" x="546.79" y="-91.94" font-family="Times,serif" font-size="14.00">val=381234067</text>
<text text-anchor="start" x="543.42" y="-75.44" font-family="Times,serif" font-size="14.00">sum=381234067</text>
<text text-anchor="start" x="567.04" y="-58.94" font-family="Times,serif" font-size="14.00">count=1</text>
<text text-anchor="start" x="571.54" y="-42.44" font-family="Times,serif" font-size="14.00">size=1</text>
<text text-anchor="start" x="565.17" y="-25.94" font-family="Times,serif" font-size="14.00">height=1</text>
</g>
<!-- 9&#45;&gt;8 -->
<g id="edge4" class="edge">
<title>9&#45;&gt;8</title>
<path fill="none" stroke="black" d="M589.54,-163.89C589.54,-155.98 589.54,-147.83 589.54,-139.76"/>
<polygon fill="black" stroke="black" points="593.04,-139.96 589.54,-129.96 586.04,-139.96 593.04,-139.96"/>
</g>
<!-- 10 -->
<g id="node10" class="node">
<title>10</title>
<ellipse fill="none" stroke="black" cx="1016.54" cy="-719.94" rx="81.32" ry="63.99"/>
<text text-anchor="start" x="973.79" y="-747.89" font-family="Times,serif" font-size="14.00">val=424776357</text>
<text text-anchor="start" x="967.04" y="-731.39" font-family="Times,serif" font-size="14.00">sum=6666994844</text>
<text text-anchor="start" x="994.04" y="-714.89" font-family="Times,serif" font-size="14.00">count=1</text>
<text text-anchor="start" x="995.17" y="-698.39" font-family="Times,serif" font-size="14.00">size=18</text>
<text text-anchor="start" x="992.17" y="-681.89" font-family="Times,serif" font-size="14.00">height=5</text>
</g>
<!-- 10&#45;&gt;5 -->
<g id="edge16" class="edge">
<title>10&#45;&gt;5</title>
<path fill="none" stroke="black" d="M941.29,-695.04C848.22,-665.47 690.14,-615.27 592.42,-584.23"/>
<polygon fill="black" stroke="black" points="593.72,-580.97 583.13,-581.28 591.6,-587.64 593.72,-580.97"/>
</g>
<!-- 14 -->
<g id="node14" class="node">
<title>14</title>
<ellipse fill="none" stroke="black" cx="1016.54" cy="-555.95" rx="81.32" ry="63.99"/>
<text text-anchor="start" x="973.79" y="-583.9" font-family="Times,serif" font-size="14.00">val=476006883</text>
<text text-anchor="start" x="967.04" y="-567.4" font-family="Times,serif" font-size="14.00">sum=3835516443</text>
<text text-anchor="start" x="994.04" y="-550.9" font-family="Times,serif" font-size="14.00">count=1</text>
<text text-anchor="start" x="998.54" y="-534.4" font-family="Times,serif" font-size="14.00">size=8</text>
<text text-anchor="start" x="992.17" y="-517.9" font-family="Times,serif" font-size="14.00">height=4</text>
</g>
<!-- 10&#45;&gt;14 -->
<g id="edge17" class="edge">
<title>10&#45;&gt;14</title>
<path fill="none" stroke="black" d="M1016.54,-655.85C1016.54,-647.94 1016.54,-639.79 1016.54,-631.72"/>
<polygon fill="black" stroke="black" points="1020.04,-631.92 1016.54,-621.92 1013.04,-631.92 1020.04,-631.92"/>
</g>
<!-- 11 -->
<g id="node11" class="node">
<title>11</title>
<ellipse fill="none" stroke="black" cx="760.54" cy="-227.98" rx="76.54" ry="63.99"/>
<text text-anchor="start" x="717.79" y="-255.93" font-family="Times,serif" font-size="14.00">val=427482847</text>
<text text-anchor="start" x="714.42" y="-239.43" font-family="Times,serif" font-size="14.00">sum=427482847</text>
<text text-anchor="start" x="738.04" y="-222.93" font-family="Times,serif" font-size="14.00">count=1</text>
<text text-anchor="start" x="742.54" y="-206.43" font-family="Times,serif" font-size="14.00">size=1</text>
<text text-anchor="start" x="736.17" y="-189.93" font-family="Times,serif" font-size="14.00">height=1</text>
</g>
<!-- 12 -->
<g id="node12" class="node">
<title>12</title>
<ellipse fill="none" stroke="black" cx="926.54" cy="-391.97" rx="81.32" ry="63.99"/>
<text text-anchor="start" x="883.79" y="-419.92" font-family="Times,serif" font-size="14.00">val=430397101</text>
<text text-anchor="start" x="877.04" y="-403.42" font-family="Times,serif" font-size="14.00">sum=1312144427</text>
<text text-anchor="start" x="904.04" y="-386.92" font-family="Times,serif" font-size="14.00">count=1</text>
<text text-anchor="start" x="908.54" y="-370.42" font-family="Times,serif" font-size="14.00">size=3</text>
<text text-anchor="start" x="902.17" y="-353.92" font-family="Times,serif" font-size="14.00">height=2</text>
</g>
<!-- 12&#45;&gt;11 -->
<g id="edge9" class="edge">
<title>12&#45;&gt;11</title>
<path fill="none" stroke="black" d="M875.84,-341.48C857.65,-323.73 837.01,-303.59 818.27,-285.31"/>
<polygon fill="black" stroke="black" points="820.77,-282.86 811.17,-278.38 815.88,-287.87 820.77,-282.86"/>
</g>
<!-- 13 -->
<g id="node13" class="node">
<title>13</title>
<ellipse fill="none" stroke="black" cx="931.54" cy="-227.98" rx="76.54" ry="63.99"/>
<text text-anchor="start" x="888.79" y="-255.93" font-family="Times,serif" font-size="14.00">val=454264479</text>
<text text-anchor="start" x="885.42" y="-239.43" font-family="Times,serif" font-size="14.00">sum=454264479</text>
<text text-anchor="start" x="909.04" y="-222.93" font-family="Times,serif" font-size="14.00">count=1</text>
<text text-anchor="start" x="913.54" y="-206.43" font-family="Times,serif" font-size="14.00">size=1</text>
<text text-anchor="start" x="907.17" y="-189.93" font-family="Times,serif" font-size="14.00">height=1</text>
</g>
<!-- 12&#45;&gt;13 -->
<g id="edge10" class="edge">
<title>12&#45;&gt;13</title>
<path fill="none" stroke="black" d="M928.49,-327.87C928.74,-319.96 928.99,-311.81 929.24,-303.75"/>
<polygon fill="black" stroke="black" points="932.73,-304.05 929.54,-293.95 925.73,-303.83 932.73,-304.05"/>
</g>
<!-- 14&#45;&gt;12 -->
<g id="edge14" class="edge">
<title>14&#45;&gt;12</title>
<path fill="none" stroke="black" d="M984.31,-496.93C977.84,-485.3 971,-472.98 964.37,-461.04"/>
<polygon fill="black" stroke="black" points="967.51,-459.49 959.59,-452.45 961.39,-462.89 967.51,-459.49"/>
</g>
<!-- 17 -->
<g id="node17" class="node">
<title>17</title>
<ellipse fill="none" stroke="black" cx="1107.54" cy="-391.97" rx="81.32" ry="63.99"/>
<text text-anchor="start" x="1064.79" y="-419.92" font-family="Times,serif" font-size="14.00">val=528426178</text>
<text text-anchor="start" x="1058.04" y="-403.42" font-family="Times,serif" font-size="14.00">sum=2047365133</text>
<text text-anchor="start" x="1085.04" y="-386.92" font-family="Times,serif" font-size="14.00">count=1</text>
<text text-anchor="start" x="1089.54" y="-370.42" font-family="Times,serif" font-size="14.00">size=4</text>
<text text-anchor="start" x="1083.17" y="-353.92" font-family="Times,serif" font-size="14.00">height=3</text>
</g>
<!-- 14&#45;&gt;17 -->
<g id="edge15" class="edge">
<title>14&#45;&gt;17</title>
<path fill="none" stroke="black" d="M1049.14,-496.93C1055.71,-485.23 1062.68,-472.83 1069.42,-460.82"/>
<polygon fill="black" stroke="black" points="1072.44,-462.61 1074.28,-452.18 1066.33,-459.18 1072.44,-462.61"/>
</g>
<!-- 15 -->
<g id="node15" class="node">
<title>15</title>
<ellipse fill="none" stroke="black" cx="1102.54" cy="-63.99" rx="76.54" ry="63.99"/>
<text text-anchor="start" x="1059.79" y="-91.94" font-family="Times,serif" font-size="14.00">val=484436691</text>
<text text-anchor="start" x="1056.42" y="-75.44" font-family="Times,serif" font-size="14.00">sum=484436691</text>
<text text-anchor="start" x="1080.04" y="-58.94" font-family="Times,serif" font-size="14.00">count=1</text>
<text text-anchor="start" x="1084.54" y="-42.44" font-family="Times,serif" font-size="14.00">size=1</text>
<text text-anchor="start" x="1078.17" y="-25.94" font-family="Times,serif" font-size="14.00">height=1</text>
</g>
<!-- 16 -->
<g id="node16" class="node">
<title>16</title>
<ellipse fill="none" stroke="black" cx="1102.54" cy="-227.98" rx="76.54" ry="63.99"/>
<text text-anchor="start" x="1059.79" y="-255.93" font-family="Times,serif" font-size="14.00">val=502834015</text>
<text text-anchor="start" x="1056.42" y="-239.43" font-family="Times,serif" font-size="14.00">sum=987270706</text>
<text text-anchor="start" x="1080.04" y="-222.93" font-family="Times,serif" font-size="14.00">count=1</text>
<text text-anchor="start" x="1084.54" y="-206.43" font-family="Times,serif" font-size="14.00">size=2</text>
<text text-anchor="start" x="1078.17" y="-189.93" font-family="Times,serif" font-size="14.00">height=2</text>
</g>
<!-- 16&#45;&gt;15 -->
<g id="edge11" class="edge">
<title>16&#45;&gt;15</title>
<path fill="none" stroke="black" d="M1102.54,-163.89C1102.54,-155.98 1102.54,-147.83 1102.54,-139.76"/>
<polygon fill="black" stroke="black" points="1106.04,-139.96 1102.54,-129.96 1099.04,-139.96 1106.04,-139.96"/>
</g>
<!-- 17&#45;&gt;16 -->
<g id="edge12" class="edge">
<title>17&#45;&gt;16</title>
<path fill="none" stroke="black" d="M1105.6,-327.87C1105.35,-319.96 1105.1,-311.81 1104.85,-303.75"/>
<polygon fill="black" stroke="black" points="1108.36,-303.83 1104.55,-293.95 1101.36,-304.05 1108.36,-303.83"/>
</g>
<!-- 18 -->
<g id="node18" class="node">
<title>18</title>
<ellipse fill="none" stroke="black" cx="1273.54" cy="-227.98" rx="76.54" ry="63.99"/>
<text text-anchor="start" x="1230.79" y="-255.93" font-family="Times,serif" font-size="14.00">val=531668249</text>
<text text-anchor="start" x="1227.42" y="-239.43" font-family="Times,serif" font-size="14.00">sum=531668249</text>
<text text-anchor="start" x="1251.04" y="-222.93" font-family="Times,serif" font-size="14.00">count=1</text>
<text text-anchor="start" x="1255.54" y="-206.43" font-family="Times,serif" font-size="14.00">size=1</text>
<text text-anchor="start" x="1249.17" y="-189.93" font-family="Times,serif" font-size="14.00">height=1</text>
</g>
<!-- 17&#45;&gt;18 -->
<g id="edge13" class="edge">
<title>17&#45;&gt;18</title>
<path fill="none" stroke="black" d="M1158.25,-341.48C1176.44,-323.73 1197.08,-303.59 1215.82,-285.31"/>
<polygon fill="black" stroke="black" points="1218.21,-287.87 1222.92,-278.38 1213.32,-282.86 1218.21,-287.87"/>
</g>
<!-- 19 -->
<g id="node19" class="node">
<title>19</title>
<ellipse fill="none" stroke="black" cx="1272.54" cy="-883.92" rx="86.09" ry="63.99"/>
<text text-anchor="start" x="1229.79" y="-911.87" font-family="Times,serif" font-size="14.00">val=540290782</text>
<text text-anchor="start" x="1219.67" y="-895.37" font-family="Times,serif" font-size="14.00">sum=18522816798</text>
<text text-anchor="start" x="1250.04" y="-878.87" font-family="Times,serif" font-size="14.00">count=1</text>
<text text-anchor="start" x="1251.17" y="-862.37" font-family="Times,serif" font-size="14.00">size=33</text>
<text text-anchor="start" x="1248.17" y="-845.87" font-family="Times,serif" font-size="14.00">height=6</text>
</g>
<!-- 19&#45;&gt;10 -->
<g id="edge31" class="edge">
<title>19&#45;&gt;10</title>
<path fill="none" stroke="black" d="M1207.28,-841.63C1171.09,-818.73 1126.01,-790.21 1088.77,-766.64"/>
<polygon fill="black" stroke="black" points="1091.08,-763.96 1080.76,-761.57 1087.34,-769.87 1091.08,-763.96"/>
</g>
<!-- 25 -->
<g id="node25" class="node">
<title>25</title>
<ellipse fill="none" stroke="black" cx="1553.54" cy="-719.94" rx="86.09" ry="63.99"/>
<text text-anchor="start" x="1510.79" y="-747.89" font-family="Times,serif" font-size="14.00">val=756771003</text>
<text text-anchor="start" x="1500.67" y="-731.39" font-family="Times,serif" font-size="14.00">sum=11315531172</text>
<text text-anchor="start" x="1531.04" y="-714.89" font-family="Times,serif" font-size="14.00">count=1</text>
<text text-anchor="start" x="1532.17" y="-698.39" font-family="Times,serif" font-size="14.00">size=14</text>
<text text-anchor="start" x="1529.17" y="-681.89" font-family="Times,serif" font-size="14.00">height=5</text>
</g>
<!-- 19&#45;&gt;25 -->
<g id="edge32" class="edge">
<title>19&#45;&gt;25</title>
<path fill="none" stroke="black" d="M1340.21,-843.92C1381.19,-820.3 1433.6,-790.08 1476.21,-765.52"/>
<polygon fill="black" stroke="black" points="1477.75,-768.67 1484.67,-760.64 1474.26,-762.6 1477.75,-768.67"/>
</g>
<!-- 20 -->
<g id="node20" class="node">
<title>20</title>
<ellipse fill="none" stroke="black" cx="1444.54" cy="-227.98" rx="76.54" ry="63.99"/>
<text text-anchor="start" x="1401.79" y="-255.93" font-family="Times,serif" font-size="14.00">val=593031831</text>
<text text-anchor="start" x="1398.42" y="-239.43" font-family="Times,serif" font-size="14.00">sum=593031831</text>
<text text-anchor="start" x="1422.04" y="-222.93" font-family="Times,serif" font-size="14.00">count=1</text>
<text text-anchor="start" x="1426.54" y="-206.43" font-family="Times,serif" font-size="14.00">size=1</text>
<text text-anchor="start" x="1420.17" y="-189.93" font-family="Times,serif" font-size="14.00">height=1</text>
</g>
<!-- 21 -->
<g id="node21" class="node">
<title>21</title>
<ellipse fill="none" stroke="black" cx="1465.54" cy="-391.97" rx="81.32" ry="63.99"/>
<text text-anchor="start" x="1422.79" y="-419.92" font-family="Times,serif" font-size="14.00">val=614555267</text>
<text text-anchor="start" x="1416.04" y="-403.42" font-family="Times,serif" font-size="14.00">sum=1831714618</text>
<text text-anchor="start" x="1443.04" y="-386.92" font-family="Times,serif" font-size="14.00">count=1</text>
<text text-anchor="start" x="1447.54" y="-370.42" font-family="Times,serif" font-size="14.00">size=3</text>
<text text-anchor="start" x="1441.17" y="-353.92" font-family="Times,serif" font-size="14.00">height=2</text>
</g>
<!-- 21&#45;&gt;20 -->
<g id="edge18" class="edge">
<title>21&#45;&gt;20</title>
<path fill="none" stroke="black" d="M1457.37,-327.87C1456.31,-319.75 1455.23,-311.38 1454.15,-303.1"/>
<polygon fill="black" stroke="black" points="1457.65,-302.87 1452.9,-293.4 1450.71,-303.77 1457.65,-302.87"/>
</g>
<!-- 22 -->
<g id="node22" class="node">
<title>22</title>
<ellipse fill="none" stroke="black" cx="1615.54" cy="-227.98" rx="76.54" ry="63.99"/>
<text text-anchor="start" x="1572.79" y="-255.93" font-family="Times,serif" font-size="14.00">val=624127520</text>
<text text-anchor="start" x="1569.42" y="-239.43" font-family="Times,serif" font-size="14.00">sum=624127520</text>
<text text-anchor="start" x="1593.04" y="-222.93" font-family="Times,serif" font-size="14.00">count=1</text>
<text text-anchor="start" x="1597.54" y="-206.43" font-family="Times,serif" font-size="14.00">size=1</text>
<text text-anchor="start" x="1591.17" y="-189.93" font-family="Times,serif" font-size="14.00">height=1</text>
</g>
<!-- 21&#45;&gt;22 -->
<g id="edge19" class="edge">
<title>21&#45;&gt;22</title>
<path fill="none" stroke="black" d="M1513.01,-339.71C1528.42,-323.06 1545.64,-304.47 1561.5,-287.34"/>
<polygon fill="black" stroke="black" points="1563.91,-289.89 1568.13,-280.18 1558.77,-285.14 1563.91,-289.89"/>
</g>
<!-- 23 -->
<g id="node23" class="node">
<title>23</title>
<ellipse fill="none" stroke="black" cx="1553.54" cy="-555.95" rx="81.32" ry="63.99"/>
<text text-anchor="start" x="1510.79" y="-583.9" font-family="Times,serif" font-size="14.00">val=630672979</text>
<text text-anchor="start" x="1504.04" y="-567.4" font-family="Times,serif" font-size="14.00">sum=3119692432</text>
<text text-anchor="start" x="1531.04" y="-550.9" font-family="Times,serif" font-size="14.00">count=1</text>
<text text-anchor="start" x="1535.54" y="-534.4" font-family="Times,serif" font-size="14.00">size=5</text>
<text text-anchor="start" x="1529.17" y="-517.9" font-family="Times,serif" font-size="14.00">height=3</text>
</g>
<!-- 23&#45;&gt;21 -->
<g id="edge20" class="edge">
<title>23&#45;&gt;21</title>
<path fill="none" stroke="black" d="M1522.02,-496.93C1515.74,-485.37 1509.09,-473.13 1502.65,-461.26"/>
<polygon fill="black" stroke="black" points="1505.86,-459.85 1498.01,-452.73 1499.71,-463.19 1505.86,-459.85"/>
</g>
<!-- 24 -->
<g id="node24" class="node">
<title>24</title>
<ellipse fill="none" stroke="black" cx="1641.54" cy="-391.97" rx="76.54" ry="63.99"/>
<text text-anchor="start" x="1598.79" y="-419.92" font-family="Times,serif" font-size="14.00">val=657304835</text>
<text text-anchor="start" x="1595.42" y="-403.42" font-family="Times,serif" font-size="14.00">sum=657304835</text>
<text text-anchor="start" x="1619.04" y="-386.92" font-family="Times,serif" font-size="14.00">count=1</text>
<text text-anchor="start" x="1623.54" y="-370.42" font-family="Times,serif" font-size="14.00">size=1</text>
<text text-anchor="start" x="1617.17" y="-353.92" font-family="Times,serif" font-size="14.00">height=1</text>
</g>
<!-- 23&#45;&gt;24 -->
<g id="edge21" class="edge">
<title>23&#45;&gt;24</title>
<path fill="none" stroke="black" d="M1585.07,-496.93C1591.46,-485.16 1598.24,-472.68 1604.8,-460.6"/>
<polygon fill="black" stroke="black" points="1607.82,-462.37 1609.52,-451.91 1601.67,-459.03 1607.82,-462.37"/>
</g>
<!-- 25&#45;&gt;23 -->
<g id="edge29" class="edge">
<title>25&#45;&gt;23</title>
<path fill="none" stroke="black" d="M1553.54,-655.85C1553.54,-647.94 1553.54,-639.79 1553.54,-631.72"/>
<polygon fill="black" stroke="black" points="1557.04,-631.92 1553.54,-621.92 1550.04,-631.92 1557.04,-631.92"/>
</g>
<!-- 31 -->
<g id="node31" class="node">
<title>31</title>
<ellipse fill="none" stroke="black" cx="1902.54" cy="-555.95" rx="81.32" ry="63.99"/>
<text text-anchor="start" x="1859.79" y="-583.9" font-family="Times,serif" font-size="14.00">val=974275914</text>
<text text-anchor="start" x="1853.04" y="-567.4" font-family="Times,serif" font-size="14.00">sum=7439067737</text>
<text text-anchor="start" x="1880.04" y="-550.9" font-family="Times,serif" font-size="14.00">count=1</text>
<text text-anchor="start" x="1884.54" y="-534.4" font-family="Times,serif" font-size="14.00">size=8</text>
<text text-anchor="start" x="1878.17" y="-517.9" font-family="Times,serif" font-size="14.00">height=4</text>
</g>
<!-- 25&#45;&gt;31 -->
<g id="edge30" class="edge">
<title>25&#45;&gt;31</title>
<path fill="none" stroke="black" d="M1626.28,-685.18C1683.57,-658.59 1763.36,-621.56 1822.46,-594.12"/>
<polygon fill="black" stroke="black" points="1823.91,-597.31 1831.5,-589.93 1820.96,-590.96 1823.91,-597.31"/>
</g>
<!-- 26 -->
<g id="node26" class="node">
<title>26</title>
<ellipse fill="none" stroke="black" cx="1791.54" cy="-227.98" rx="81.32" ry="63.99"/>
<text text-anchor="start" x="1748.79" y="-255.93" font-family="Times,serif" font-size="14.00">val=773181717</text>
<text text-anchor="start" x="1742.04" y="-239.43" font-family="Times,serif" font-size="14.00">sum=1623552784</text>
<text text-anchor="start" x="1769.04" y="-222.93" font-family="Times,serif" font-size="14.00">count=1</text>
<text text-anchor="start" x="1773.54" y="-206.43" font-family="Times,serif" font-size="14.00">size=2</text>
<text text-anchor="start" x="1767.17" y="-189.93" font-family="Times,serif" font-size="14.00">height=2</text>
</g>
<!-- 27 -->
<g id="node27" class="node">
<title>27</title>
<ellipse fill="none" stroke="black" cx="1791.54" cy="-63.99" rx="76.54" ry="63.99"/>
<text text-anchor="start" x="1748.79" y="-91.94" font-family="Times,serif" font-size="14.00">val=850371067</text>
<text text-anchor="start" x="1745.42" y="-75.44" font-family="Times,serif" font-size="14.00">sum=850371067</text>
<text text-anchor="start" x="1769.04" y="-58.94" font-family="Times,serif" font-size="14.00">count=1</text>
<text text-anchor="start" x="1773.54" y="-42.44" font-family="Times,serif" font-size="14.00">size=1</text>
<text text-anchor="start" x="1767.17" y="-25.94" font-family="Times,serif" font-size="14.00">height=1</text>
</g>
<!-- 26&#45;&gt;27 -->
<g id="edge22" class="edge">
<title>26&#45;&gt;27</title>
<path fill="none" stroke="black" d="M1791.54,-163.89C1791.54,-155.98 1791.54,-147.83 1791.54,-139.76"/>
<polygon fill="black" stroke="black" points="1795.04,-139.96 1791.54,-129.96 1788.04,-139.96 1795.04,-139.96"/>
</g>
<!-- 28 -->
<g id="node28" class="node">
<title>28</title>
<ellipse fill="none" stroke="black" cx="1902.54" cy="-391.97" rx="81.32" ry="63.99"/>
<text text-anchor="start" x="1859.79" y="-419.92" font-family="Times,serif" font-size="14.00">val=931778211</text>
<text text-anchor="start" x="1853.04" y="-403.42" font-family="Times,serif" font-size="14.00">sum=4487867296</text>
<text text-anchor="start" x="1880.04" y="-386.92" font-family="Times,serif" font-size="14.00">count=1</text>
<text text-anchor="start" x="1884.54" y="-370.42" font-family="Times,serif" font-size="14.00">size=5</text>
<text text-anchor="start" x="1878.17" y="-353.92" font-family="Times,serif" font-size="14.00">height=3</text>
</g>
<!-- 28&#45;&gt;26 -->
<g id="edge24" class="edge">
<title>28&#45;&gt;26</title>
<path fill="none" stroke="black" d="M1864.34,-335.22C1855.27,-321.98 1845.52,-307.75 1836.19,-294.13"/>
<polygon fill="black" stroke="black" points="1839.21,-292.35 1830.67,-286.08 1833.44,-296.3 1839.21,-292.35"/>
</g>
<!-- 29 -->
<g id="node29" class="node">
<title>29</title>
<ellipse fill="none" stroke="black" cx="1972.54" cy="-227.98" rx="81.32" ry="63.99"/>
<text text-anchor="start" x="1929.79" y="-255.93" font-family="Times,serif" font-size="14.00">val=958601327</text>
<text text-anchor="start" x="1923.04" y="-239.43" font-family="Times,serif" font-size="14.00">sum=1932536301</text>
<text text-anchor="start" x="1950.04" y="-222.93" font-family="Times,serif" font-size="14.00">count=1</text>
<text text-anchor="start" x="1954.54" y="-206.43" font-family="Times,serif" font-size="14.00">size=2</text>
<text text-anchor="start" x="1948.17" y="-189.93" font-family="Times,serif" font-size="14.00">height=2</text>
</g>
<!-- 28&#45;&gt;29 -->
<g id="edge25" class="edge">
<title>28&#45;&gt;29</title>
<path fill="none" stroke="black" d="M1928.41,-331.11C1932.88,-320.77 1937.56,-309.93 1942.14,-299.34"/>
<polygon fill="black" stroke="black" points="1945.31,-300.82 1946.07,-290.25 1938.89,-298.04 1945.31,-300.82"/>
</g>
<!-- 30 -->
<g id="node30" class="node">
<title>30</title>
<ellipse fill="none" stroke="black" cx="1972.54" cy="-63.99" rx="76.54" ry="63.99"/>
<text text-anchor="start" x="1929.79" y="-91.94" font-family="Times,serif" font-size="14.00">val=973934974</text>
<text text-anchor="start" x="1926.42" y="-75.44" font-family="Times,serif" font-size="14.00">sum=973934974</text>
<text text-anchor="start" x="1950.04" y="-58.94" font-family="Times,serif" font-size="14.00">count=1</text>
<text text-anchor="start" x="1954.54" y="-42.44" font-family="Times,serif" font-size="14.00">size=1</text>
<text text-anchor="start" x="1948.17" y="-25.94" font-family="Times,serif" font-size="14.00">height=1</text>
</g>
<!-- 29&#45;&gt;30 -->
<g id="edge23" class="edge">
<title>29&#45;&gt;30</title>
<path fill="none" stroke="black" d="M1972.54,-163.89C1972.54,-155.98 1972.54,-147.83 1972.54,-139.76"/>
<polygon fill="black" stroke="black" points="1976.04,-139.96 1972.54,-129.96 1969.04,-139.96 1976.04,-139.96"/>
</g>
<!-- 31&#45;&gt;28 -->
<g id="edge27" class="edge">
<title>31&#45;&gt;28</title>
<path fill="none" stroke="black" d="M1902.54,-491.86C1902.54,-483.95 1902.54,-475.8 1902.54,-467.73"/>
<polygon fill="black" stroke="black" points="1906.04,-467.93 1902.54,-457.93 1899.04,-467.93 1906.04,-467.93"/>
</g>
<!-- 32 -->
<g id="node32" class="node">
<title>32</title>
<ellipse fill="none" stroke="black" cx="2126.54" cy="-391.97" rx="81.32" ry="63.99"/>
<text text-anchor="start" x="2083.79" y="-419.92" font-family="Times,serif" font-size="14.00">val=983205479</text>
<text text-anchor="start" x="2077.04" y="-403.42" font-family="Times,serif" font-size="14.00">sum=1976924527</text>
<text text-anchor="start" x="2104.04" y="-386.92" font-family="Times,serif" font-size="14.00">count=1</text>
<text text-anchor="start" x="2108.54" y="-370.42" font-family="Times,serif" font-size="14.00">size=2</text>
<text text-anchor="start" x="2102.17" y="-353.92" font-family="Times,serif" font-size="14.00">height=2</text>
</g>
<!-- 31&#45;&gt;32 -->
<g id="edge28" class="edge">
<title>31&#45;&gt;32</title>
<path fill="none" stroke="black" d="M1961.98,-511.97C1991.59,-490.56 2027.54,-464.56 2058.28,-442.33"/>
<polygon fill="black" stroke="black" points="2059.94,-445.45 2065.99,-436.76 2055.84,-439.78 2059.94,-445.45"/>
</g>
<!-- 33 -->
<g id="node33" class="node">
<title>33</title>
<ellipse fill="none" stroke="black" cx="2148.54" cy="-227.98" rx="76.54" ry="63.99"/>
<text text-anchor="start" x="2105.79" y="-255.93" font-family="Times,serif" font-size="14.00">val=993719048</text>
<text text-anchor="start" x="2102.42" y="-239.43" font-family="Times,serif" font-size="14.00">sum=993719048</text>
<text text-anchor="start" x="2126.04" y="-222.93" font-family="Times,serif" font-size="14.00">count=1</text>
<text text-anchor="start" x="2130.54" y="-206.43" font-family="Times,serif" font-size="14.00">size=1</text>
<text text-anchor="start" x="2124.17" y="-189.93" font-family="Times,serif" font-size="14.00">height=1</text>
</g>
<!-- 32&#45;&gt;33 -->
<g id="edge26" class="edge">
<title>32&#45;&gt;33</title>
<path fill="none" stroke="black" d="M2135.11,-327.87C2136.22,-319.75 2137.35,-311.38 2138.48,-303.1"/>
<polygon fill="black" stroke="black" points="2141.92,-303.78 2139.8,-293.4 2134.98,-302.84 2141.92,-303.78"/>
</g>
</g>
</svg>
